<mxfile host="www.draw.io" modified="2020-03-05T11:46:28.183Z" agent="Mozilla/5.0 (Macintosh; Intel Mac OS X 10_15_3) AppleWebKit/605.1.15 (KHTML, like Gecko) Version/13.0.5 Safari/605.1.15" etag="cqB9fRC3Ihmb4Cl0djj_" version="12.7.9" type="github">
  <diagram id="07fea595-8f29-1299-0266-81d95cde20df" name="Page-1">
    <mxGraphModel dx="3155" dy="1380" grid="1" gridSize="10" guides="1" tooltips="1" connect="1" arrows="1" fold="1" page="1" pageScale="1" pageWidth="900" pageHeight="1600" background="#ffffff" math="0" shadow="0">
      <root>
        <mxCell id="0" />
        <mxCell id="1" parent="0" />
        <mxCell id="646" value="&lt;font size=&quot;4&quot;&gt;Create&lt;/font&gt;" style="shape=hexagon;perimeter=hexagonPerimeter2;whiteSpace=wrap;html=1;shadow=0;labelBackgroundColor=none;strokeColor=#23445D;fillColor=#ffffff;gradientColor=none;fontFamily=Helvetica;fontSize=23;fontColor=#23445D;align=center;strokeWidth=3;" parent="1" vertex="1">
          <mxGeometry x="174.99905870445352" y="1020" width="170.08188259109312" height="141.7049173414306" as="geometry" />
        </mxCell>
        <mxCell id="648" value="&lt;font style=&quot;font-size: 20px;&quot;&gt;Sync&lt;/font&gt;" style="shape=hexagon;perimeter=hexagonPerimeter2;whiteSpace=wrap;html=1;shadow=0;labelBackgroundColor=none;strokeColor=#82b366;fillColor=#d5e8d4;fontFamily=Helvetica;fontSize=20;align=center;strokeWidth=3;" parent="1" vertex="1">
          <mxGeometry x="191.54" y="2600" width="108.46" height="90.36" as="geometry" />
        </mxCell>
        <mxCell id="lqgOaMfDo8AyOj83VxGX-658" value="&lt;font color=&quot;#ffffff&quot;&gt;&lt;span style=&quot;font-size: 21px&quot;&gt;&lt;b&gt;Tenant&lt;/b&gt;&lt;/span&gt;&lt;/font&gt;" style="shape=hexagon;perimeter=hexagonPerimeter2;whiteSpace=wrap;html=1;shadow=0;labelBackgroundColor=none;strokeColor=#23445D;fillColor=#23445D;gradientColor=none;fontFamily=Helvetica;fontSize=23;fontColor=#23445d;align=center;strokeWidth=3;" vertex="1" parent="1">
          <mxGeometry x="404.88905870445365" y="1739.9984159919027" width="170.08188259109312" height="141.7049173414306" as="geometry" />
        </mxCell>
        <mxCell id="lqgOaMfDo8AyOj83VxGX-660" value="&lt;font color=&quot;#ffffff&quot;&gt;&lt;span style=&quot;font-size: 21px&quot;&gt;&lt;b&gt;Organization&lt;/b&gt;&lt;/span&gt;&lt;/font&gt;" style="shape=hexagon;perimeter=hexagonPerimeter2;whiteSpace=wrap;html=1;shadow=0;labelBackgroundColor=none;strokeColor=#23445D;fillColor=#23445D;gradientColor=none;fontFamily=Helvetica;fontSize=23;fontColor=#23445d;align=center;strokeWidth=3;" vertex="1" parent="1">
          <mxGeometry x="165.7890587044538" y="1979.9984159919022" width="170.08188259109312" height="141.7049173414306" as="geometry" />
        </mxCell>
        <mxCell id="lqgOaMfDo8AyOj83VxGX-661" value="&lt;font color=&quot;#ffffff&quot;&gt;&lt;span style=&quot;font-size: 21px&quot;&gt;&lt;b&gt;User&lt;/b&gt;&lt;/span&gt;&lt;/font&gt;" style="shape=hexagon;perimeter=hexagonPerimeter2;whiteSpace=wrap;html=1;shadow=0;labelBackgroundColor=none;strokeColor=#23445D;fillColor=#23445D;gradientColor=none;fontFamily=Helvetica;fontSize=23;fontColor=#23445d;align=center;strokeWidth=3;" vertex="1" parent="1">
          <mxGeometry x="165.78905870445362" y="2179.998415991902" width="170.08188259109312" height="141.7049173414306" as="geometry" />
        </mxCell>
        <mxCell id="lqgOaMfDo8AyOj83VxGX-662" value="&lt;font color=&quot;#ffffff&quot;&gt;&lt;span style=&quot;font-size: 21px&quot;&gt;&lt;b&gt;Role&lt;br&gt;&lt;/b&gt;&lt;/span&gt;&lt;/font&gt;" style="shape=hexagon;perimeter=hexagonPerimeter2;whiteSpace=wrap;html=1;shadow=0;labelBackgroundColor=none;strokeColor=#23445D;fillColor=#23445D;gradientColor=none;fontFamily=Helvetica;fontSize=23;fontColor=#23445d;align=center;strokeWidth=3;" vertex="1" parent="1">
          <mxGeometry x="639.9990587044535" y="1979.9984159919022" width="170.08188259109312" height="141.7049173414306" as="geometry" />
        </mxCell>
        <mxCell id="lqgOaMfDo8AyOj83VxGX-663" value="&lt;font color=&quot;#ffffff&quot;&gt;&lt;span style=&quot;font-size: 21px&quot;&gt;&lt;b&gt;Domain&lt;/b&gt;&lt;/span&gt;&lt;/font&gt;" style="shape=hexagon;perimeter=hexagonPerimeter2;whiteSpace=wrap;html=1;shadow=0;labelBackgroundColor=none;strokeColor=#23445D;fillColor=#23445D;gradientColor=none;fontFamily=Helvetica;fontSize=23;fontColor=#23445d;align=center;strokeWidth=3;" vertex="1" parent="1">
          <mxGeometry x="174.99905870445352" y="1161.7084159919027" width="170.08188259109312" height="141.7049173414306" as="geometry" />
        </mxCell>
        <mxCell id="lqgOaMfDo8AyOj83VxGX-664" value="&lt;font size=&quot;4&quot;&gt;Delete&lt;/font&gt;" style="shape=hexagon;perimeter=hexagonPerimeter2;whiteSpace=wrap;html=1;shadow=0;labelBackgroundColor=none;strokeColor=#23445D;fillColor=#ffffff;gradientColor=none;fontFamily=Helvetica;fontSize=23;fontColor=#23445D;align=center;strokeWidth=3;" vertex="1" parent="1">
          <mxGeometry x="299.99905870445355" y="1091.71" width="170.08188259109312" height="141.7049173414306" as="geometry" />
        </mxCell>
        <mxCell id="lqgOaMfDo8AyOj83VxGX-665" value="&lt;font size=&quot;4&quot;&gt;Disable&lt;br&gt;&lt;/font&gt;" style="shape=hexagon;perimeter=hexagonPerimeter2;whiteSpace=wrap;html=1;shadow=0;labelBackgroundColor=none;strokeColor=#23445D;fillColor=#ffffff;gradientColor=none;fontFamily=Helvetica;fontSize=23;fontColor=#23445D;align=center;strokeWidth=3;" vertex="1" parent="1">
          <mxGeometry x="49.99905870445352" y="1091.71" width="170.08188259109312" height="141.7049173414306" as="geometry" />
        </mxCell>
        <mxCell id="lqgOaMfDo8AyOj83VxGX-666" value="&lt;font size=&quot;4&quot;&gt;Update&lt;br&gt;&lt;/font&gt;" style="shape=hexagon;perimeter=hexagonPerimeter2;whiteSpace=wrap;html=1;shadow=0;labelBackgroundColor=none;strokeColor=#23445D;fillColor=#ffffff;gradientColor=none;fontFamily=Helvetica;fontSize=23;fontColor=#23445D;align=center;strokeWidth=3;" vertex="1" parent="1">
          <mxGeometry x="49.99905870445352" y="1233.41" width="170.08188259109312" height="141.7049173414306" as="geometry" />
        </mxCell>
        <mxCell id="lqgOaMfDo8AyOj83VxGX-667" value="query" style="shape=hexagon;perimeter=hexagonPerimeter2;whiteSpace=wrap;html=1;shadow=0;labelBackgroundColor=none;strokeColor=#23445D;fillColor=#ffffff;gradientColor=none;fontFamily=Helvetica;fontSize=23;fontColor=#23445D;align=center;strokeWidth=3;" vertex="1" parent="1">
          <mxGeometry x="299.99905870445355" y="1233.41" width="170.08188259109312" height="141.7049173414306" as="geometry" />
        </mxCell>
        <mxCell id="lqgOaMfDo8AyOj83VxGX-668" value="quary" style="shape=hexagon;perimeter=hexagonPerimeter2;whiteSpace=wrap;html=1;shadow=0;labelBackgroundColor=none;strokeColor=#23445D;fillColor=#ffffff;gradientColor=none;fontFamily=Helvetica;fontSize=23;fontColor=#23445D;align=center;strokeWidth=3;" vertex="1" parent="1">
          <mxGeometry x="174.70905870445355" y="1303.41" width="170.08188259109312" height="141.7049173414306" as="geometry" />
        </mxCell>
        <mxCell id="lqgOaMfDo8AyOj83VxGX-670" value="&lt;font color=&quot;#ffffff&quot;&gt;&lt;span style=&quot;font-size: 21px&quot;&gt;&lt;b&gt;Org Group&lt;/b&gt;&lt;/span&gt;&lt;/font&gt;" style="shape=hexagon;perimeter=hexagonPerimeter2;whiteSpace=wrap;html=1;shadow=0;labelBackgroundColor=none;strokeColor=#23445D;fillColor=#23445D;gradientColor=none;fontFamily=Helvetica;fontSize=23;fontColor=#23445d;align=center;strokeWidth=3;" vertex="1" parent="1">
          <mxGeometry x="404.88905870445353" y="1979.9984159919027" width="170.08188259109312" height="141.7049173414306" as="geometry" />
        </mxCell>
        <mxCell id="lqgOaMfDo8AyOj83VxGX-671" value="&lt;font color=&quot;#ffffff&quot;&gt;&lt;span style=&quot;font-size: 21px&quot;&gt;&lt;b&gt;User Group&lt;/b&gt;&lt;/span&gt;&lt;/font&gt;" style="shape=hexagon;perimeter=hexagonPerimeter2;whiteSpace=wrap;html=1;shadow=0;labelBackgroundColor=none;strokeColor=#23445D;fillColor=#23445D;gradientColor=none;fontFamily=Helvetica;fontSize=23;fontColor=#23445d;align=center;strokeWidth=3;" vertex="1" parent="1">
          <mxGeometry x="401.65905870445357" y="2179.998415991902" width="170.08188259109312" height="141.7049173414306" as="geometry" />
        </mxCell>
        <mxCell id="lqgOaMfDo8AyOj83VxGX-673" style="edgeStyle=orthogonalEdgeStyle;rounded=1;orthogonalLoop=1;jettySize=auto;html=1;fontColor=#FFFFFF;strokeColor=#23445D;exitX=0.5;exitY=1;exitDx=0;exitDy=0;entryX=0.5;entryY=0;entryDx=0;entryDy=0;" edge="1" parent="1" source="lqgOaMfDo8AyOj83VxGX-660" target="lqgOaMfDo8AyOj83VxGX-661">
          <mxGeometry relative="1" as="geometry">
            <mxPoint x="380.5800000000003" y="2122.0033333333336" as="sourcePoint" />
            <mxPoint x="380.5800000000003" y="2190.2984159919024" as="targetPoint" />
          </mxGeometry>
        </mxCell>
        <mxCell id="lqgOaMfDo8AyOj83VxGX-674" style="edgeStyle=orthogonalEdgeStyle;rounded=1;orthogonalLoop=1;jettySize=auto;html=1;fontColor=#FFFFFF;strokeColor=#23445D;exitX=1;exitY=0.5;exitDx=0;exitDy=0;" edge="1" parent="1" source="lqgOaMfDo8AyOj83VxGX-660" target="lqgOaMfDo8AyOj83VxGX-670">
          <mxGeometry relative="1" as="geometry">
            <mxPoint x="260.83000000000055" y="2131.703333333333" as="sourcePoint" />
            <mxPoint x="260.8300000000003" y="2189.998415991902" as="targetPoint" />
          </mxGeometry>
        </mxCell>
        <mxCell id="lqgOaMfDo8AyOj83VxGX-675" style="edgeStyle=orthogonalEdgeStyle;rounded=1;orthogonalLoop=1;jettySize=auto;html=1;fontColor=#FFFFFF;strokeColor=#23445D;exitX=1;exitY=0.5;exitDx=0;exitDy=0;" edge="1" parent="1" source="lqgOaMfDo8AyOj83VxGX-661">
          <mxGeometry relative="1" as="geometry">
            <mxPoint x="334.66" y="2261" as="sourcePoint" />
            <mxPoint x="401.66" y="2251" as="targetPoint" />
          </mxGeometry>
        </mxCell>
        <mxCell id="lqgOaMfDo8AyOj83VxGX-681" style="edgeStyle=orthogonalEdgeStyle;rounded=1;orthogonalLoop=1;jettySize=auto;html=1;fontColor=#FFFFFF;strokeColor=#23445D;exitX=0.5;exitY=1;exitDx=0;exitDy=0;entryX=0.5;entryY=0;entryDx=0;entryDy=0;" edge="1" parent="1" source="lqgOaMfDo8AyOj83VxGX-658" target="lqgOaMfDo8AyOj83VxGX-660">
          <mxGeometry relative="1" as="geometry">
            <mxPoint x="470.0009412955468" y="1930.0008746626177" as="sourcePoint" />
            <mxPoint x="539.0485401438474" y="1930.0500000000002" as="targetPoint" />
          </mxGeometry>
        </mxCell>
        <mxCell id="lqgOaMfDo8AyOj83VxGX-682" style="edgeStyle=orthogonalEdgeStyle;rounded=1;orthogonalLoop=1;jettySize=auto;html=1;fontColor=#FFFFFF;strokeColor=#23445D;exitX=0.5;exitY=1;exitDx=0;exitDy=0;" edge="1" parent="1" source="lqgOaMfDo8AyOj83VxGX-658" target="lqgOaMfDo8AyOj83VxGX-670">
          <mxGeometry relative="1" as="geometry">
            <mxPoint x="495.0400000000002" y="1881.7033333333334" as="sourcePoint" />
            <mxPoint x="260.8300000000004" y="1989.9984159919022" as="targetPoint" />
          </mxGeometry>
        </mxCell>
        <mxCell id="lqgOaMfDo8AyOj83VxGX-683" style="edgeStyle=orthogonalEdgeStyle;rounded=1;orthogonalLoop=1;jettySize=auto;html=1;fontColor=#FFFFFF;strokeColor=#23445D;exitX=0.5;exitY=1;exitDx=0;exitDy=0;entryX=0.5;entryY=0;entryDx=0;entryDy=0;" edge="1" parent="1" source="lqgOaMfDo8AyOj83VxGX-658" target="lqgOaMfDo8AyOj83VxGX-662">
          <mxGeometry relative="1" as="geometry">
            <mxPoint x="499.9300000000003" y="1891.7033333333334" as="sourcePoint" />
            <mxPoint x="260.8300000000004" y="1989.9984159919022" as="targetPoint" />
          </mxGeometry>
        </mxCell>
        <mxCell id="lqgOaMfDo8AyOj83VxGX-685" value="&lt;font color=&quot;#ffffff&quot;&gt;&lt;span style=&quot;font-size: 21px&quot;&gt;&lt;b&gt;Element&lt;br&gt;&lt;/b&gt;&lt;/span&gt;&lt;/font&gt;" style="shape=hexagon;perimeter=hexagonPerimeter2;whiteSpace=wrap;html=1;shadow=0;labelBackgroundColor=none;strokeColor=#23445D;fillColor=#23445D;gradientColor=none;fontFamily=Helvetica;fontSize=23;fontColor=#23445d;align=center;strokeWidth=3;" vertex="1" parent="1">
          <mxGeometry x="689.9990587044535" y="1509.9984159919022" width="170.08188259109312" height="141.7049173414306" as="geometry" />
        </mxCell>
        <mxCell id="lqgOaMfDo8AyOj83VxGX-686" value="&lt;font color=&quot;#ffffff&quot;&gt;&lt;span style=&quot;font-size: 21px&quot;&gt;&lt;b&gt;Organization&lt;/b&gt;&lt;/span&gt;&lt;/font&gt;" style="shape=hexagon;perimeter=hexagonPerimeter2;whiteSpace=wrap;html=1;shadow=0;labelBackgroundColor=none;strokeColor=#23445D;fillColor=#23445D;gradientColor=none;fontFamily=Helvetica;fontSize=23;fontColor=#23445d;align=center;strokeWidth=3;" vertex="1" parent="1">
          <mxGeometry x="39.75905870445379" y="2419.998415991902" width="170.08188259109312" height="141.7049173414306" as="geometry" />
        </mxCell>
        <mxCell id="lqgOaMfDo8AyOj83VxGX-687" value="&lt;font style=&quot;font-size: 20px&quot;&gt;Create&lt;/font&gt;" style="shape=hexagon;perimeter=hexagonPerimeter2;whiteSpace=wrap;html=1;shadow=0;labelBackgroundColor=none;strokeColor=#82b366;fillColor=#d5e8d4;fontFamily=Helvetica;fontSize=20;align=center;strokeWidth=3;" vertex="1" parent="1">
          <mxGeometry x="191.54" y="2720" width="108.46" height="90.36" as="geometry" />
        </mxCell>
        <mxCell id="lqgOaMfDo8AyOj83VxGX-688" value="Modify" style="shape=hexagon;perimeter=hexagonPerimeter2;whiteSpace=wrap;html=1;shadow=0;labelBackgroundColor=none;strokeColor=#82b366;fillColor=#d5e8d4;fontFamily=Helvetica;fontSize=20;align=center;strokeWidth=3;" vertex="1" parent="1">
          <mxGeometry x="191.54" y="2842.56" width="108.46" height="90.36" as="geometry" />
        </mxCell>
        <mxCell id="lqgOaMfDo8AyOj83VxGX-689" value="Disable" style="shape=hexagon;perimeter=hexagonPerimeter2;whiteSpace=wrap;html=1;shadow=0;labelBackgroundColor=none;strokeColor=#23445D;fillColor=#FFFFFF;gradientColor=none;fontFamily=Helvetica;fontSize=20;fontColor=#23445d;align=center;strokeWidth=3;" vertex="1" parent="1">
          <mxGeometry x="191.54" y="3074.7000000000003" width="108.46" height="90.36" as="geometry" />
        </mxCell>
        <mxCell id="lqgOaMfDo8AyOj83VxGX-690" value="Enable" style="shape=hexagon;perimeter=hexagonPerimeter2;whiteSpace=wrap;html=1;shadow=0;labelBackgroundColor=none;strokeColor=#23445D;fillColor=#FFFFFF;gradientColor=none;fontFamily=Helvetica;fontSize=20;fontColor=#23445d;align=center;strokeWidth=3;" vertex="1" parent="1">
          <mxGeometry x="191.54" y="3189.0400000000004" width="108.46" height="90.36" as="geometry" />
        </mxCell>
        <mxCell id="lqgOaMfDo8AyOj83VxGX-691" value="Delete" style="shape=hexagon;perimeter=hexagonPerimeter2;whiteSpace=wrap;html=1;shadow=0;labelBackgroundColor=none;strokeColor=#82b366;fillColor=#d5e8d4;fontFamily=Helvetica;fontSize=20;align=center;strokeWidth=3;" vertex="1" parent="1">
          <mxGeometry x="191.54" y="2958.67" width="108.46" height="90.36" as="geometry" />
        </mxCell>
        <mxCell id="lqgOaMfDo8AyOj83VxGX-692" value="Query" style="shape=hexagon;perimeter=hexagonPerimeter2;whiteSpace=wrap;html=1;shadow=0;labelBackgroundColor=none;strokeColor=#23445D;fillColor=#FFFFFF;gradientColor=none;fontFamily=Helvetica;fontSize=20;fontColor=#23445d;align=center;strokeWidth=3;" vertex="1" parent="1">
          <mxGeometry x="191.54" y="3310.36" width="108.46" height="90.36" as="geometry" />
        </mxCell>
        <mxCell id="lqgOaMfDo8AyOj83VxGX-693" value="Add Group" style="shape=hexagon;perimeter=hexagonPerimeter2;whiteSpace=wrap;html=1;shadow=0;labelBackgroundColor=none;strokeColor=#23445D;fillColor=#FFFFFF;gradientColor=none;fontFamily=Helvetica;fontSize=20;fontColor=#23445d;align=center;strokeWidth=3;" vertex="1" parent="1">
          <mxGeometry x="191.54" y="3430.36" width="108.46" height="90.36" as="geometry" />
        </mxCell>
        <mxCell id="lqgOaMfDo8AyOj83VxGX-694" value="Rm Group" style="shape=hexagon;perimeter=hexagonPerimeter2;whiteSpace=wrap;html=1;shadow=0;labelBackgroundColor=none;strokeColor=#23445D;fillColor=#FFFFFF;gradientColor=none;fontFamily=Helvetica;fontSize=20;fontColor=#23445d;align=center;strokeWidth=3;" vertex="1" parent="1">
          <mxGeometry x="191.54" y="3550.36" width="108.46" height="90.36" as="geometry" />
        </mxCell>
        <mxCell id="lqgOaMfDo8AyOj83VxGX-696" value="&lt;font color=&quot;#ffffff&quot;&gt;&lt;span style=&quot;font-size: 21px&quot;&gt;&lt;b&gt;Org Group&lt;/b&gt;&lt;/span&gt;&lt;/font&gt;" style="shape=hexagon;perimeter=hexagonPerimeter2;whiteSpace=wrap;html=1;shadow=0;labelBackgroundColor=none;strokeColor=#23445D;fillColor=#23445D;gradientColor=none;fontFamily=Helvetica;fontSize=23;fontColor=#23445d;align=center;strokeWidth=3;" vertex="1" parent="1">
          <mxGeometry x="499.99905870445355" y="2419.9984159919027" width="170.08188259109312" height="141.7049173414306" as="geometry" />
        </mxCell>
        <mxCell id="lqgOaMfDo8AyOj83VxGX-699" value="&lt;font style=&quot;font-size: 20px;&quot;&gt;Sync&lt;/font&gt;" style="shape=hexagon;perimeter=hexagonPerimeter2;whiteSpace=wrap;html=1;shadow=0;labelBackgroundColor=none;strokeColor=#82b366;fillColor=#d5e8d4;fontFamily=Helvetica;fontSize=20;align=center;strokeWidth=3;" vertex="1" parent="1">
          <mxGeometry x="530.81" y="2599.64" width="108.46" height="90.36" as="geometry" />
        </mxCell>
        <mxCell id="lqgOaMfDo8AyOj83VxGX-700" value="&lt;font style=&quot;font-size: 20px&quot;&gt;Create&lt;/font&gt;" style="shape=hexagon;perimeter=hexagonPerimeter2;whiteSpace=wrap;html=1;shadow=0;labelBackgroundColor=none;strokeColor=#82b366;fillColor=#d5e8d4;fontFamily=Helvetica;fontSize=20;align=center;strokeWidth=3;" vertex="1" parent="1">
          <mxGeometry x="530.81" y="2719.64" width="108.46" height="90.36" as="geometry" />
        </mxCell>
        <mxCell id="lqgOaMfDo8AyOj83VxGX-701" value="Modify" style="shape=hexagon;perimeter=hexagonPerimeter2;whiteSpace=wrap;html=1;shadow=0;labelBackgroundColor=none;strokeColor=#82b366;fillColor=#d5e8d4;fontFamily=Helvetica;fontSize=20;align=center;strokeWidth=3;" vertex="1" parent="1">
          <mxGeometry x="530.81" y="2842.2" width="108.46" height="90.36" as="geometry" />
        </mxCell>
        <mxCell id="lqgOaMfDo8AyOj83VxGX-702" value="Delete" style="shape=hexagon;perimeter=hexagonPerimeter2;whiteSpace=wrap;html=1;shadow=0;labelBackgroundColor=none;strokeColor=#82b366;fillColor=#d5e8d4;fontFamily=Helvetica;fontSize=20;align=center;strokeWidth=3;" vertex="1" parent="1">
          <mxGeometry x="530.81" y="2958.31" width="108.46" height="90.36" as="geometry" />
        </mxCell>
        <mxCell id="lqgOaMfDo8AyOj83VxGX-703" value="Disable" style="shape=hexagon;perimeter=hexagonPerimeter2;whiteSpace=wrap;html=1;shadow=0;labelBackgroundColor=none;strokeColor=#23445D;fillColor=#FFFFFF;gradientColor=none;fontFamily=Helvetica;fontSize=20;fontColor=#23445d;align=center;strokeWidth=3;" vertex="1" parent="1">
          <mxGeometry x="530.81" y="3074.34" width="108.46" height="90.36" as="geometry" />
        </mxCell>
        <mxCell id="lqgOaMfDo8AyOj83VxGX-704" value="Enable" style="shape=hexagon;perimeter=hexagonPerimeter2;whiteSpace=wrap;html=1;shadow=0;labelBackgroundColor=none;strokeColor=#23445D;fillColor=#FFFFFF;gradientColor=none;fontFamily=Helvetica;fontSize=20;fontColor=#23445d;align=center;strokeWidth=3;" vertex="1" parent="1">
          <mxGeometry x="530.81" y="3188.6800000000003" width="108.46" height="90.36" as="geometry" />
        </mxCell>
        <mxCell id="lqgOaMfDo8AyOj83VxGX-705" value="Query" style="shape=hexagon;perimeter=hexagonPerimeter2;whiteSpace=wrap;html=1;shadow=0;labelBackgroundColor=none;strokeColor=#23445D;fillColor=#FFFFFF;gradientColor=none;fontFamily=Helvetica;fontSize=20;fontColor=#23445d;align=center;strokeWidth=3;" vertex="1" parent="1">
          <mxGeometry x="530.81" y="3310" width="108.46" height="90.36" as="geometry" />
        </mxCell>
        <mxCell id="lqgOaMfDo8AyOj83VxGX-706" value="Add Users" style="shape=hexagon;perimeter=hexagonPerimeter2;whiteSpace=wrap;html=1;shadow=0;labelBackgroundColor=none;strokeColor=#23445D;fillColor=#FFFFFF;gradientColor=none;fontFamily=Helvetica;fontSize=20;fontColor=#23445d;align=center;strokeWidth=3;" vertex="1" parent="1">
          <mxGeometry x="530.81" y="3430" width="108.46" height="90.36" as="geometry" />
        </mxCell>
        <mxCell id="lqgOaMfDo8AyOj83VxGX-707" value="Rm Users" style="shape=hexagon;perimeter=hexagonPerimeter2;whiteSpace=wrap;html=1;shadow=0;labelBackgroundColor=none;strokeColor=#23445D;fillColor=#FFFFFF;gradientColor=none;fontFamily=Helvetica;fontSize=20;fontColor=#23445d;align=center;strokeWidth=3;" vertex="1" parent="1">
          <mxGeometry x="530.81" y="3550" width="108.46" height="90.36" as="geometry" />
        </mxCell>
        <mxCell id="lqgOaMfDo8AyOj83VxGX-713" style="edgeStyle=orthogonalEdgeStyle;rounded=1;orthogonalLoop=1;jettySize=auto;html=1;entryX=0.5;entryY=0;entryDx=0;entryDy=0;strokeColor=#23445D;fontSize=20;fontColor=#56E39D;" edge="1" parent="1" source="lqgOaMfDo8AyOj83VxGX-710" target="lqgOaMfDo8AyOj83VxGX-658">
          <mxGeometry relative="1" as="geometry">
            <mxPoint x="489.92999999999984" y="1731.7033333333334" as="targetPoint" />
          </mxGeometry>
        </mxCell>
        <mxCell id="lqgOaMfDo8AyOj83VxGX-710" value="&lt;font color=&quot;#ffffff&quot;&gt;&lt;span style=&quot;font-size: 21px&quot;&gt;&lt;b&gt;Domain&lt;/b&gt;&lt;/span&gt;&lt;/font&gt;" style="shape=hexagon;perimeter=hexagonPerimeter2;whiteSpace=wrap;html=1;shadow=0;labelBackgroundColor=none;strokeColor=#23445D;fillColor=#23445D;gradientColor=none;fontFamily=Helvetica;fontSize=23;fontColor=#23445d;align=center;strokeWidth=3;" vertex="1" parent="1">
          <mxGeometry x="404.88905870445365" y="1509.9984159919027" width="170.08188259109312" height="141.7049173414306" as="geometry" />
        </mxCell>
        <mxCell id="lqgOaMfDo8AyOj83VxGX-715" value="ID" style="shape=hexagon;perimeter=hexagonPerimeter2;whiteSpace=wrap;html=1;shadow=0;labelBackgroundColor=none;strokeColor=#82b366;fillColor=#d5e8d4;fontFamily=Helvetica;fontSize=18;align=center;strokeWidth=3;" vertex="1" parent="1">
          <mxGeometry x="-10" y="2619.82" width="108.46" height="50" as="geometry" />
        </mxCell>
        <mxCell id="lqgOaMfDo8AyOj83VxGX-716" value="Parent_ID" style="shape=hexagon;perimeter=hexagonPerimeter2;whiteSpace=wrap;html=1;shadow=0;labelBackgroundColor=none;strokeColor=#82b366;fillColor=#d5e8d4;fontFamily=Helvetica;fontSize=18;align=center;strokeWidth=3;" vertex="1" parent="1">
          <mxGeometry x="-10" y="2700" width="108.46" height="50" as="geometry" />
        </mxCell>
        <mxCell id="lqgOaMfDo8AyOj83VxGX-717" value="Name" style="shape=hexagon;perimeter=hexagonPerimeter2;whiteSpace=wrap;html=1;shadow=0;labelBackgroundColor=none;strokeColor=#82b366;fillColor=#d5e8d4;fontFamily=Helvetica;fontSize=18;align=center;strokeWidth=3;" vertex="1" parent="1">
          <mxGeometry x="-10" y="2780" width="108.46" height="50" as="geometry" />
        </mxCell>
        <mxCell id="lqgOaMfDo8AyOj83VxGX-718" value="Code" style="shape=hexagon;perimeter=hexagonPerimeter2;whiteSpace=wrap;html=1;shadow=0;labelBackgroundColor=none;strokeColor=#82b366;fillColor=#d5e8d4;fontFamily=Helvetica;fontSize=18;align=center;strokeWidth=3;" vertex="1" parent="1">
          <mxGeometry x="-10" y="2862.3799999999997" width="108.46" height="50" as="geometry" />
        </mxCell>
        <mxCell id="lqgOaMfDo8AyOj83VxGX-719" value="Origin" style="shape=hexagon;perimeter=hexagonPerimeter2;whiteSpace=wrap;html=1;shadow=0;labelBackgroundColor=none;strokeColor=#82b366;fillColor=#d5e8d4;fontFamily=Helvetica;fontSize=18;align=center;strokeWidth=3;" vertex="1" parent="1">
          <mxGeometry x="-10" y="2939.9999999999995" width="108.46" height="50" as="geometry" />
        </mxCell>
        <mxCell id="lqgOaMfDo8AyOj83VxGX-720" value="Remote_ID" style="shape=hexagon;perimeter=hexagonPerimeter2;whiteSpace=wrap;html=1;shadow=0;labelBackgroundColor=none;strokeColor=#82b366;fillColor=#d5e8d4;fontFamily=Helvetica;fontSize=18;align=center;strokeWidth=3;" vertex="1" parent="1">
          <mxGeometry x="-10" y="3019.9999999999995" width="108.46" height="50" as="geometry" />
        </mxCell>
        <mxCell id="lqgOaMfDo8AyOj83VxGX-721" value="Description" style="shape=hexagon;perimeter=hexagonPerimeter2;whiteSpace=wrap;html=1;shadow=0;labelBackgroundColor=none;strokeColor=#82b366;fillColor=#d5e8d4;fontFamily=Helvetica;fontSize=18;align=center;strokeWidth=3;" vertex="1" parent="1">
          <mxGeometry x="-10" y="3099.9999999999995" width="108.46" height="50" as="geometry" />
        </mxCell>
        <mxCell id="lqgOaMfDo8AyOj83VxGX-722" value="QuotaObject" style="swimlane;fontStyle=1;align=center;verticalAlign=top;childLayout=stackLayout;horizontal=1;startSize=26;horizontalStack=0;resizeParent=1;resizeParentMax=0;resizeLast=0;collapsible=1;marginBottom=0;" vertex="1" parent="1">
          <mxGeometry x="-310" y="1480" width="210" height="320" as="geometry">
            <mxRectangle x="40" y="40" width="90" height="26" as="alternateBounds" />
          </mxGeometry>
        </mxCell>
        <mxCell id="lqgOaMfDo8AyOj83VxGX-723" value="+ targetId: String&#xa;+ targetType: String&#xa;+ targetCode: String&#xa;+ targetParentType: String&#xa;+ targetParentId: String&#xa;+ serviceCode: String&#xa;+ itemType: String&#xa;+ item: String&#xa;+ quota:Integer&#xa;+ selfUsed:Integer&#xa;+ childUsed:Integer" style="text;strokeColor=none;fillColor=none;align=left;verticalAlign=top;spacingLeft=4;spacingRight=4;overflow=hidden;rotatable=0;points=[[0,0.5],[1,0.5]];portConstraint=eastwest;" vertex="1" parent="lqgOaMfDo8AyOj83VxGX-722">
          <mxGeometry y="26" width="210" height="174" as="geometry" />
        </mxCell>
        <mxCell id="lqgOaMfDo8AyOj83VxGX-724" value="" style="line;strokeWidth=1;fillColor=none;align=left;verticalAlign=middle;spacingTop=-1;spacingLeft=3;spacingRight=3;rotatable=0;labelPosition=right;points=[];portConstraint=eastwest;" vertex="1" parent="lqgOaMfDo8AyOj83VxGX-722">
          <mxGeometry y="200" width="210" height="8" as="geometry" />
        </mxCell>
        <mxCell id="lqgOaMfDo8AyOj83VxGX-725" value="+ checkQuota():void&#xa;+ modifyQuota():void&#xa;- findParent(): QuotaObject&#xa;- listChildren(): List&lt;QuotaObject&gt;&#xa;- increaseQuota():void&#xa;- reduceQuota():void" style="text;strokeColor=none;fillColor=none;align=left;verticalAlign=top;spacingLeft=4;spacingRight=4;overflow=hidden;rotatable=0;points=[[0,0.5],[1,0.5]];portConstraint=eastwest;" vertex="1" parent="lqgOaMfDo8AyOj83VxGX-722">
          <mxGeometry y="208" width="210" height="112" as="geometry" />
        </mxCell>
      </root>
    </mxGraphModel>
  </diagram>
</mxfile>
